<mxfile host="Electron" modified="2024-11-28T00:07:13.942Z" agent="Mozilla/5.0 (Windows NT 10.0; Win64; x64) AppleWebKit/537.36 (KHTML, like Gecko) draw.io/21.6.8 Chrome/114.0.5735.289 Electron/25.5.0 Safari/537.36" etag="sTuyN6ZBYADYN3Sa1hWL" version="21.6.8" type="device">
  <diagram name="Página-1" id="_-KCDiEoB2Uspg051VlY">
    <mxGraphModel dx="933" dy="1612" grid="1" gridSize="10" guides="1" tooltips="1" connect="1" arrows="1" fold="1" page="1" pageScale="1" pageWidth="827" pageHeight="1169" math="0" shadow="0">
      <root>
        <mxCell id="0" />
        <mxCell id="1" parent="0" />
        <mxCell id="ikp6PF-iInU-LRLL0dTo-2" value="Router" style="swimlane;fontStyle=1;align=center;verticalAlign=top;childLayout=stackLayout;horizontal=1;startSize=26;horizontalStack=0;resizeParent=1;resizeParentMax=0;resizeLast=0;collapsible=1;marginBottom=0;whiteSpace=wrap;html=1;" vertex="1" parent="1">
          <mxGeometry x="120" y="-440" width="350" height="420" as="geometry" />
        </mxCell>
        <mxCell id="ikp6PF-iInU-LRLL0dTo-3" value="- &lt;span class=&quot;hljs-attr&quot;&gt;routes&lt;/span&gt;: &lt;span class=&quot;hljs-title class_&quot;&gt;Object&lt;/span&gt;&lt;br&gt;- &lt;span class=&quot;hljs-attr&quot;&gt;protectedRoutes&lt;/span&gt;: &lt;span class=&quot;hljs-title class_&quot;&gt;Set&lt;/span&gt;&lt;br&gt;- &lt;span class=&quot;hljs-attr&quot;&gt;roleBasedRoutes&lt;/span&gt;: &lt;span class=&quot;hljs-title class_&quot;&gt;Object&lt;/span&gt;&lt;br&gt;- &lt;span class=&quot;hljs-attr&quot;&gt;fragmentCache&lt;/span&gt;: &lt;span class=&quot;hljs-title class_&quot;&gt;Object&lt;/span&gt;&lt;br&gt;- &lt;span class=&quot;hljs-attr&quot;&gt;onViewLoaded&lt;/span&gt;: &lt;span class=&quot;hljs-title class_&quot;&gt;Function&lt;/span&gt; | &lt;span class=&quot;hljs-literal&quot;&gt;null&lt;/span&gt;&lt;br&gt;- &lt;span class=&quot;hljs-attr&quot;&gt;isRouting&lt;/span&gt;: &lt;span class=&quot;hljs-title class_&quot;&gt;Boolean&lt;/span&gt;" style="text;strokeColor=none;fillColor=none;align=left;verticalAlign=top;spacingLeft=4;spacingRight=4;overflow=hidden;rotatable=0;points=[[0,0.5],[1,0.5]];portConstraint=eastwest;whiteSpace=wrap;html=1;" vertex="1" parent="ikp6PF-iInU-LRLL0dTo-2">
          <mxGeometry y="26" width="350" height="94" as="geometry" />
        </mxCell>
        <mxCell id="ikp6PF-iInU-LRLL0dTo-4" value="" style="line;strokeWidth=1;fillColor=none;align=left;verticalAlign=middle;spacingTop=-1;spacingLeft=3;spacingRight=3;rotatable=0;labelPosition=right;points=[];portConstraint=eastwest;strokeColor=inherit;" vertex="1" parent="ikp6PF-iInU-LRLL0dTo-2">
          <mxGeometry y="120" width="350" height="8" as="geometry" />
        </mxCell>
        <mxCell id="ikp6PF-iInU-LRLL0dTo-5" value="&amp;lt;&amp;lt;Constructores&amp;gt;&amp;gt;&lt;br&gt;+ &lt;span class=&quot;hljs-title function_&quot;&gt;constructor&lt;/span&gt;(&lt;span class=&quot;hljs-params&quot;&gt;&lt;/span&gt;)&lt;br&gt;&lt;br&gt;&amp;lt;&amp;lt;Métodos&amp;gt;&amp;gt;&lt;br&gt;+ &lt;span class=&quot;hljs-title function_&quot;&gt;registerRoute&lt;/span&gt;(&lt;span class=&quot;hljs-attr&quot;&gt;path&lt;/span&gt;: &lt;span class=&quot;hljs-title class_&quot;&gt;String&lt;/span&gt;, &lt;span class=&quot;hljs-attr&quot;&gt;view&lt;/span&gt;: &lt;span class=&quot;hljs-title class_&quot;&gt;String&lt;/span&gt;, &lt;span class=&quot;hljs-attr&quot;&gt;isProtected&lt;/span&gt;: &lt;span class=&quot;hljs-title class_&quot;&gt;Boolean&lt;/span&gt; = &lt;span class=&quot;hljs-literal&quot;&gt;false&lt;/span&gt;, &lt;span class=&quot;hljs-attr&quot;&gt;role&lt;/span&gt;: &lt;span class=&quot;hljs-title class_&quot;&gt;String&lt;/span&gt; | &lt;span class=&quot;hljs-literal&quot;&gt;null&lt;/span&gt; = &lt;span class=&quot;hljs-literal&quot;&gt;null&lt;/span&gt;): &lt;span class=&quot;hljs-keyword&quot;&gt;void&lt;/span&gt;&lt;br&gt;+ &lt;span class=&quot;hljs-title function_&quot;&gt;isAuthenticated&lt;/span&gt;(): &lt;span class=&quot;hljs-title class_&quot;&gt;Promise&lt;/span&gt;&amp;lt;&lt;span class=&quot;hljs-title class_&quot;&gt;Boolean&lt;/span&gt;&amp;gt;&lt;br&gt;+ &lt;span class=&quot;hljs-title function_&quot;&gt;getRole&lt;/span&gt;(): &lt;span class=&quot;hljs-title class_&quot;&gt;Promise&lt;/span&gt;&amp;lt;&lt;span class=&quot;hljs-title class_&quot;&gt;String&lt;/span&gt; | &lt;span class=&quot;hljs-literal&quot;&gt;null&lt;/span&gt;&amp;gt;&lt;br&gt;+ &lt;span class=&quot;hljs-title function_&quot;&gt;navigate&lt;/span&gt;(&lt;span class=&quot;hljs-attr&quot;&gt;path&lt;/span&gt;: &lt;span class=&quot;hljs-title class_&quot;&gt;String&lt;/span&gt;, &lt;span class=&quot;hljs-attr&quot;&gt;params&lt;/span&gt;: &lt;span class=&quot;hljs-title class_&quot;&gt;Object&lt;/span&gt; = {}): &lt;span class=&quot;hljs-title class_&quot;&gt;Promise&lt;/span&gt;&amp;lt;&lt;span class=&quot;hljs-keyword&quot;&gt;void&lt;/span&gt;&amp;gt;&lt;br&gt;+ &lt;span class=&quot;hljs-title function_&quot;&gt;showNotification&lt;/span&gt;(&lt;span class=&quot;hljs-attr&quot;&gt;message&lt;/span&gt;: &lt;span class=&quot;hljs-title class_&quot;&gt;String&lt;/span&gt;, &lt;span class=&quot;hljs-attr&quot;&gt;type&lt;/span&gt;: &lt;span class=&quot;hljs-title class_&quot;&gt;String&lt;/span&gt; = &lt;span class=&quot;hljs-string&quot;&gt;&#39;info&#39;&lt;/span&gt;, &lt;span class=&quot;hljs-attr&quot;&gt;duration&lt;/span&gt;: &lt;span class=&quot;hljs-title class_&quot;&gt;Number&lt;/span&gt; = &lt;span class=&quot;hljs-number&quot;&gt;3000&lt;/span&gt;): &lt;span class=&quot;hljs-title class_&quot;&gt;Promise&lt;/span&gt;&amp;lt;&lt;span class=&quot;hljs-keyword&quot;&gt;void&lt;/span&gt;&amp;gt;&lt;br&gt;+ &lt;span class=&quot;hljs-title function_&quot;&gt;router&lt;/span&gt;(): &lt;span class=&quot;hljs-title class_&quot;&gt;Promise&lt;/span&gt;&amp;lt;&lt;span class=&quot;hljs-keyword&quot;&gt;void&lt;/span&gt;&amp;gt;&lt;br&gt;+ &lt;span class=&quot;hljs-title function_&quot;&gt;loadView&lt;/span&gt;(&lt;span class=&quot;hljs-attr&quot;&gt;route&lt;/span&gt;: &lt;span class=&quot;hljs-title class_&quot;&gt;String&lt;/span&gt;): &lt;span class=&quot;hljs-title class_&quot;&gt;Promise&lt;/span&gt;&amp;lt;&lt;span class=&quot;hljs-keyword&quot;&gt;void&lt;/span&gt;&amp;gt;&lt;br&gt;+ &lt;span class=&quot;hljs-title function_&quot;&gt;redirectToLogin&lt;/span&gt;(): &lt;span class=&quot;hljs-keyword&quot;&gt;void&lt;/span&gt;&lt;br&gt;+ &lt;span class=&quot;hljs-title function_&quot;&gt;redirectToDashboard&lt;/span&gt;(&lt;span class=&quot;hljs-attr&quot;&gt;userRole&lt;/span&gt;: &lt;span class=&quot;hljs-title class_&quot;&gt;String&lt;/span&gt;): &lt;span class=&quot;hljs-keyword&quot;&gt;void&lt;/span&gt;&lt;br&gt;+ &lt;span class=&quot;hljs-title function_&quot;&gt;loadFragments&lt;/span&gt;(): &lt;span class=&quot;hljs-title class_&quot;&gt;Promise&lt;/span&gt;&amp;lt;&lt;span class=&quot;hljs-keyword&quot;&gt;void&lt;/span&gt;&amp;gt;&lt;br&gt;+ &lt;span class=&quot;hljs-title function_&quot;&gt;showLoading&lt;/span&gt;(): &lt;span class=&quot;hljs-keyword&quot;&gt;void&lt;/span&gt;&lt;br&gt;+ &lt;span class=&quot;hljs-title function_&quot;&gt;hideLoading&lt;/span&gt;(): &lt;span class=&quot;hljs-keyword&quot;&gt;void&lt;/span&gt;&lt;br&gt;+ &lt;span class=&quot;hljs-title function_&quot;&gt;showError&lt;/span&gt;(&lt;span class=&quot;hljs-attr&quot;&gt;message&lt;/span&gt;: &lt;span class=&quot;hljs-title class_&quot;&gt;String&lt;/span&gt;): &lt;span class=&quot;hljs-keyword&quot;&gt;void&lt;/span&gt;" style="text;strokeColor=none;fillColor=none;align=left;verticalAlign=top;spacingLeft=4;spacingRight=4;overflow=hidden;rotatable=0;points=[[0,0.5],[1,0.5]];portConstraint=eastwest;whiteSpace=wrap;html=1;" vertex="1" parent="ikp6PF-iInU-LRLL0dTo-2">
          <mxGeometry y="128" width="350" height="292" as="geometry" />
        </mxCell>
        <mxCell id="ikp6PF-iInU-LRLL0dTo-7" value="ApiClient" style="swimlane;fontStyle=1;align=center;verticalAlign=top;childLayout=stackLayout;horizontal=1;startSize=26;horizontalStack=0;resizeParent=1;resizeParentMax=0;resizeLast=0;collapsible=1;marginBottom=0;whiteSpace=wrap;html=1;" vertex="1" parent="1">
          <mxGeometry x="540" y="-440" width="350" height="370" as="geometry" />
        </mxCell>
        <mxCell id="ikp6PF-iInU-LRLL0dTo-8" value="&lt;div&gt;+register(email: String, password: String, name: String, lastname: String)&lt;/div&gt;&lt;div&gt;+login(email: String, password: String)&lt;/div&gt;&lt;div&gt;+logout()&lt;/div&gt;&lt;div&gt;+isAuthenticated(): Promise&amp;lt;Boolean&amp;gt;&lt;/div&gt;&lt;div&gt;+getToken(): String&lt;/div&gt;" style="text;strokeColor=none;fillColor=none;align=left;verticalAlign=top;spacingLeft=4;spacingRight=4;overflow=hidden;rotatable=0;points=[[0,0.5],[1,0.5]];portConstraint=eastwest;whiteSpace=wrap;html=1;" vertex="1" parent="ikp6PF-iInU-LRLL0dTo-7">
          <mxGeometry y="26" width="350" height="94" as="geometry" />
        </mxCell>
        <mxCell id="ikp6PF-iInU-LRLL0dTo-9" value="" style="line;strokeWidth=1;fillColor=none;align=left;verticalAlign=middle;spacingTop=-1;spacingLeft=3;spacingRight=3;rotatable=0;labelPosition=right;points=[];portConstraint=eastwest;strokeColor=inherit;" vertex="1" parent="ikp6PF-iInU-LRLL0dTo-7">
          <mxGeometry y="120" width="350" height="8" as="geometry" />
        </mxCell>
        <mxCell id="ikp6PF-iInU-LRLL0dTo-10" value="&lt;div&gt;&amp;lt;&amp;lt;Constructores&amp;gt;&amp;gt;&lt;/div&gt;&lt;div&gt;+ constructor(baseURL: String, token: String | null)&lt;br&gt;&lt;/div&gt;&lt;div&gt;&lt;br&gt;&lt;/div&gt;&lt;div&gt;&lt;div&gt;&amp;lt;&amp;lt;Métodos&amp;gt;&amp;gt;&amp;nbsp; &amp;nbsp; &amp;nbsp; &amp;nbsp; &amp;nbsp; &amp;nbsp; &amp;nbsp; &amp;nbsp; &amp;nbsp; &amp;nbsp; &amp;nbsp; &amp;nbsp; &amp;nbsp;&amp;nbsp;&lt;/div&gt;&lt;div&gt;- _getHeaders(contentType: String):&amp;nbsp;&amp;nbsp;&lt;span style=&quot;background-color: initial;&quot;&gt;Object&amp;nbsp; &amp;nbsp; &amp;nbsp; &amp;nbsp; &amp;nbsp; &amp;nbsp; &amp;nbsp; &amp;nbsp; &amp;nbsp; &amp;nbsp; &amp;nbsp; &amp;nbsp; &amp;nbsp; &amp;nbsp; &amp;nbsp;&lt;/span&gt;&lt;/div&gt;&lt;div&gt;- _fetchWithRetry(url: String,&amp;nbsp;&lt;span style=&quot;background-color: initial;&quot;&gt;options: Object, retries: Number):&amp;nbsp;&lt;/span&gt;&lt;span style=&quot;background-color: initial;&quot;&gt;Promise&amp;lt;Object&amp;gt;&lt;/span&gt;&lt;/div&gt;&lt;div&gt;- _handleResponse(response: Object):&amp;nbsp;&lt;span style=&quot;background-color: initial;&quot;&gt;Promise&amp;lt;Object&amp;gt;&amp;nbsp; &amp;nbsp; &amp;nbsp; &amp;nbsp;&amp;nbsp;&lt;/span&gt;&lt;/div&gt;&lt;div&gt;+ get(endpoint: String:&amp;nbsp;&lt;span style=&quot;background-color: initial;&quot;&gt;Promise&amp;lt;Object&amp;gt;&lt;/span&gt;&lt;/div&gt;&lt;div&gt;&lt;span style=&quot;background-color: initial;&quot;&gt;+ post(endpoint: String,&amp;nbsp;&lt;/span&gt;&lt;span style=&quot;background-color: initial;&quot;&gt;data: Object): Promise&amp;lt;Object&amp;gt;&lt;/span&gt;&lt;/div&gt;&lt;div&gt;+ put(endpoint: String,&amp;nbsp;&lt;span style=&quot;background-color: initial;&quot;&gt;data: Object): Promise&amp;lt;Object&amp;gt;&lt;/span&gt;&lt;/div&gt;&lt;div&gt;+ patch(endpoint: String,&amp;nbsp;&lt;span style=&quot;background-color: initial;&quot;&gt;data: Object): Promise&amp;lt;Object&amp;gt;&lt;/span&gt;&lt;/div&gt;&lt;div&gt;+ delete(endpoint: String):&amp;nbsp;&lt;span style=&quot;background-color: initial;&quot;&gt;Promise&amp;lt;Object&amp;gt;&lt;/span&gt;&lt;/div&gt;&lt;div&gt;+ uploadFile(url: String,&amp;nbsp;&lt;span style=&quot;background-color: initial;&quot;&gt;file: File): Promise&amp;lt;Object&amp;gt;&lt;/span&gt;&lt;/div&gt;&lt;div&gt;+ setToken(newToken: String): void&amp;nbsp; &amp;nbsp;&lt;/div&gt;&lt;/div&gt;&lt;div&gt;&lt;br&gt;&lt;/div&gt;" style="text;strokeColor=none;fillColor=none;align=left;verticalAlign=top;spacingLeft=4;spacingRight=4;overflow=hidden;rotatable=0;points=[[0,0.5],[1,0.5]];portConstraint=eastwest;whiteSpace=wrap;html=1;" vertex="1" parent="ikp6PF-iInU-LRLL0dTo-7">
          <mxGeometry y="128" width="350" height="242" as="geometry" />
        </mxCell>
      </root>
    </mxGraphModel>
  </diagram>
</mxfile>
